<?xml version="1.0" encoding="utf-8"?>
<!-- Generator: Adobe Adobe Illustrator 24.2.0, SVG Export Plug-In . SVG Version: 6.00 Build 0)  -->
<svg version="1.1" xmlns="http://www.w3.org/2000/svg" xmlns:xlink="http://www.w3.org/1999/xlink" x="0px" y="0px"
	 viewBox="0 0 512 512" style="enable-background:new 0 0 512 512;" xml:space="preserve">
<style type="text/css">
	.st0{fill:#FFFFFF;}
	.st1{fill:url(#SVGID_1_);stroke:#070807;stroke-width:4;stroke-miterlimit:10;}
</style>
<g id="レイヤー_1">
	<ellipse class="st0" cx="256" cy="254.5" rx="224" ry="227.5"/>
</g>
<g id="レイヤー_2">
	<g>
		<linearGradient id="SVGID_1_" gradientUnits="userSpaceOnUse" x1="67.9503" y1="93.484" x2="440.0726" y2="434.4642">
			<stop  offset="0" style="stop-color:#20F5F1"/>
			<stop  offset="1" style="stop-color:#077A77"/>
		</linearGradient>
		<path class="st1" d="M153.54,168.7c-9.6,0-18.82-1.15-26.88-5.38c-8.06-4.22-13.82-8.83-19.2-18.43
			c-0.77-1.54-0.77-2.69-0.77-3.84c0-1.54,1.92-3.07,3.07-3.07c1.54,0,2.69,0.38,4.61,2.3c9.22,7.68,20.74,10.37,32.26,10.37
			c15.36,0,32.64-2.69,50.3-6.53c5.76-14.98,9.98-28.03,13.06-40.32c1.54-5.76,2.3-9.98,2.3-13.44c0-3.46-1.92-6.91-7.3-9.22
			s-11.52-4.22-15.74-4.99c-1.54-0.38-2.3-0.77-2.3-1.92c0-1.54,1.54-3.07,3.07-4.22c4.22-2.69,7.68-3.46,14.21-3.46
			c5.76,0,22.27,4.22,32.64,10.75c5.76,3.84,9.22,6.53,9.22,12.29c0,3.84-1.54,6.53-6.14,9.98c-4.22,3.07-6.91,9.22-10.37,16.9
			c-2.69,5.76-6.14,13.82-9.22,21.5c9.98-3.07,20.35-6.91,31.1-11.9c8.45-3.84,14.59-5.76,18.43-5.76c9.98,0,15.36,4.99,15.36,11.52
			c0,6.53-3.84,9.6-14.21,13.06c-13.44,4.61-36.86,11.14-60.29,16.51c-22.27,54.14-45.31,102.53-70.66,153.99
			c-3.07,6.53-7.68,10.37-13.82,10.37c-6.53,0-13.82-3.84-13.82-13.82c0-3.07,0.77-6.53,4.99-12.67
			c26.88-42.62,50.3-87.55,70.66-133.63C178.5,166.78,163.9,168.7,153.54,168.7z M327.87,191.36c-10.37-5.38-21.5-6.14-33.79-6.53
			c-6.53,0-13.06,0.38-18.05,1.15c-2.3,0.38-3.84,0.38-4.99,0.38c-1.92,0-3.46-1.92-3.46-4.22c0-1.54,1.54-3.07,3.84-3.84
			c11.9-4.61,24.96-6.53,35.71-6.53c23.81,0,49.54,7.68,66.05,18.43c9.6,6.14,17.28,14.21,17.28,22.66c0,6.14-4.61,11.9-11.52,11.9
			c-4.22,0-8.45-2.3-11.52-4.99c-11.52-10.37-22.27-16.51-31.87-16.51c-18.43,0-37.25,5.38-37.25,35.71
			c0,14.21,6.91,46.08,13.06,71.81c30.34,10.37,57.6,22.27,69.89,32.64c6.14,4.99,7.68,10.37,7.68,14.98
			c0,8.06-4.99,12.67-12.67,13.06c-4.22,0-8.83-1.92-14.21-6.53c-14.21-12.29-29.95-22.27-49.92-31.49
			c0,17.28-4.99,28.8-14.59,36.86c-9.98,8.83-22.66,13.44-44.93,13.44c-31.49,0-53.76-16.13-53.76-40.32
			c0-24.96,25.34-39.55,58.37-39.55c9.22,0,18.82,0.38,29.95,2.3c-1.54-19.97-4.99-40.71-4.99-59.52c0-35.71,18.43-47.62,45.7-53.76
			V191.36z M251.84,319.62c-21.5,0-40.32,8.45-40.32,24.19c0,11.52,10.75,21.12,37.25,21.12c13.44,0,23.04-3.07,30.34-9.6
			c7.68-6.91,10.37-14.98,10.37-23.42c0-1.54,0-3.46-0.38-5.76C279.11,322.31,263.36,319.62,251.84,319.62z"/>
	</g>
	<rect x="259.77" y="653.12" style="fill:none;" width="6.64" height="20.39"/>
</g>
</svg>
