<?xml version="1.0" encoding="utf-8"?>
<!-- Generator: Adobe Adobe Illustrator 24.2.0, SVG Export Plug-In . SVG Version: 6.00 Build 0)  -->
<svg version="1.1" xmlns="http://www.w3.org/2000/svg" xmlns:xlink="http://www.w3.org/1999/xlink" x="0px" y="0px"
	 viewBox="0 0 512 512" style="enable-background:new 0 0 512 512;" xml:space="preserve">
<style type="text/css">
	.st0{fill:#FFFFFF;}
	.st1{fill:url(#SVGID_1_);stroke:#070807;stroke-width:4;stroke-miterlimit:10;}
</style>
<g id="レイヤー_1">
	<ellipse class="st0" cx="256" cy="254.5" rx="253.54" ry="257.5"/>
</g>
<g id="レイヤー_2">
	<g>
		<linearGradient id="SVGID_1_" gradientUnits="userSpaceOnUse" x1="28.7876" y1="75.426" x2="476.5995" y2="485.7615">
			<stop  offset="0" style="stop-color:#20F5F1"/>
			<stop  offset="1" style="stop-color:#077A77"/>
		</linearGradient>
		<path class="st1" d="M129.86,168.26c-11.74,0-23.01-1.36-32.87-6.33c-9.86-4.97-16.91-10.4-23.48-21.7
			c-0.94-1.81-0.94-3.16-0.94-4.52c0-1.81,2.35-3.62,3.76-3.62c1.88,0,3.29,0.45,5.64,2.71c11.27,9.04,25.36,12.21,39.45,12.21
			c18.79,0,39.92-3.16,61.52-7.69c7.04-17.63,12.21-33,15.97-47.47c1.88-6.78,2.82-11.76,2.82-15.82c0-4.07-2.35-8.14-8.92-10.85
			c-6.57-2.71-14.09-4.97-19.25-5.88c-1.88-0.45-2.82-0.9-2.82-2.26c0-1.81,1.88-3.62,3.76-4.97c5.17-3.16,9.39-4.07,17.38-4.07
			c7.04,0,27.24,4.97,39.92,12.66c7.04,4.52,11.27,7.69,11.27,14.47c0,4.52-1.88,7.69-7.51,11.75c-5.17,3.62-8.45,10.85-12.68,19.89
			c-3.29,6.78-7.51,16.28-11.27,25.32c12.21-3.62,24.89-8.14,38.04-14.02c10.33-4.52,17.85-6.78,22.54-6.78
			c12.21,0,18.79,5.88,18.79,13.56c0,7.69-4.7,11.3-17.38,15.37c-16.44,5.43-45.08,13.11-73.73,19.44
			c-27.24,63.75-55.41,120.71-86.41,181.3c-3.76,7.69-9.39,12.21-16.91,12.21c-7.98,0-16.91-4.52-16.91-16.28
			c0-3.62,0.94-7.69,6.11-14.92c32.87-50.18,61.52-103.08,86.41-157.33C160.38,166,142.54,168.26,129.86,168.26z M343.07,194.94
			c-12.68-6.33-26.3-7.23-41.33-7.69c-7.98,0-15.97,0.45-22.07,1.36c-2.82,0.45-4.7,0.45-6.11,0.45c-2.35,0-4.23-2.26-4.23-4.97
			c0-1.81,1.88-3.62,4.7-4.52c14.56-5.43,30.53-7.69,43.67-7.69c29.12,0,60.58,9.04,80.78,21.7c11.74,7.23,21.13,16.73,21.13,26.67
			c0,7.23-5.64,14.02-14.09,14.02c-5.17,0-10.33-2.71-14.09-5.88c-14.09-12.21-27.24-19.44-38.98-19.44
			c-22.54,0-45.55,6.33-45.55,42.05c0,16.73,8.45,54.25,15.97,84.54c37.1,12.21,70.44,26.22,85.47,38.43
			c7.51,5.88,9.39,12.21,9.39,17.63c0,9.49-6.11,14.92-15.5,15.37c-5.17,0-10.8-2.26-17.38-7.69
			c-17.38-14.47-36.63-26.22-61.05-37.07c0,20.34-6.11,33.91-17.85,43.4c-12.21,10.4-27.71,15.82-54.95,15.82
			c-38.51,0-65.75-18.99-65.75-47.47c0-29.39,31-46.57,71.38-46.57c11.27,0,23.01,0.45,36.63,2.71
			c-1.88-23.51-6.11-47.92-6.11-70.08c0-42.05,22.54-56.06,55.88-63.3V194.94z M250.08,345.94c-26.3,0-49.31,9.95-49.31,28.48
			c0,13.56,13.15,24.87,45.55,24.87c16.44,0,28.18-3.62,37.1-11.3c9.39-8.14,12.68-17.63,12.68-27.58c0-1.81,0-4.07-0.47-6.78
			C283.42,349.1,264.17,345.94,250.08,345.94z"/>
	</g>
</g>
<g id="レイヤー_3">
</g>
</svg>
